<svg xmlns="http://www.w3.org/2000/svg" width="74.035" height="25.213" viewBox="0 0 74.035 25.213">
  <g id="Grupo_25" data-name="Grupo 25" transform="translate(-109.007 -248.776)">
    <g id="Grupo_22" data-name="Grupo 22" transform="translate(140.857 255.058)">
      <path id="Caminho_25" data-name="Caminho 25" d="M233.37,280.6v-7.436h5.587l-.558,2.087h-2.282v.619h2.365l-.537,2.024h-1.828V280.6Zm5.815-2.839v-4.6h2.747v4.369q0,.733.558.847a.453.453,0,0,0,.268,0,.645.645,0,0,0,.429-.253,1.078,1.078,0,0,0,.129-.594v-4.369h2.747v4.6a2.772,2.772,0,0,1-.723,2,3.52,3.52,0,0,1-2.127.951c-.083.013-.176.024-.279.03s-.207.01-.31.01h-.361c-.1-.02-.179-.034-.227-.041a3.523,3.523,0,0,1-2.128-.951,2.772,2.772,0,0,1-.723-2Zm7.622,2.839v-7.436h5.618l-.568,2.087h-2.3v.619h2.076v2h-2.076v.641h2.882l-.6,2.086Zm6.043,0v-7.436h3.935a2.68,2.68,0,0,1,1.673.415,2.205,2.205,0,0,1,.681,1.418,2.936,2.936,0,0,1,.041.506,2.246,2.246,0,0,1-.367,1.29,1.83,1.83,0,0,1-.986.74l2.106,3.067h-3.212l-1.125-2.261V280.6Zm3.16-4.079a.708.708,0,0,0,.428-.124.511.511,0,0,0,.211-.3,1.4,1.4,0,0,0,.042-.3c0-.434-.245-.652-.733-.652H255.6v1.385Zm3.512,4.079h6.888l.692-2.231h-2.747a1.518,1.518,0,0,0-.305.052c-.141.034-.247.062-.315.082l-.155.052.331-.31.279-.352,2.944-4.73h-6.879l-.652,2.231h2.758a.969.969,0,0,0,.321-.062q.175-.062.361-.145l.186-.093-.165.134a4.366,4.366,0,0,0-.326.3.94.94,0,0,0-.15.185l-3.066,4.885Zm7.239,0,2.645-7.436h2.861l2.643,7.436h-2.974l-.207-.95h-1.786l-.218.95Zm4.649-2.83-.4-1.776-.094-.424-.061-.5a1.331,1.331,0,0,1-.027.3c-.017.069-.032.138-.046.207l-.1.413-.4,1.776Z" transform="translate(-233.182 -273.163)" fill="#fff"/>
      <path id="Caminho_26" data-name="Caminho 26" d="M232.641,309.318a1.367,1.367,0,0,0,.105.548,1.062,1.062,0,0,0,.293.392,1.276,1.276,0,0,0,.442.235,1.883,1.883,0,0,0,.557.078,1.959,1.959,0,0,0,.76-.135,1.044,1.044,0,0,0,.48-.383,1.082,1.082,0,0,0,.167-.606,1.048,1.048,0,0,0-.094-.464.82.82,0,0,0-.249-.3,1.327,1.327,0,0,0-.356-.188,3.658,3.658,0,0,0-.413-.118l-.421-.095a2.553,2.553,0,0,1-.379-.118.834.834,0,0,1-.288-.186.545.545,0,0,1-.149-.3.7.7,0,0,1,.016-.3.665.665,0,0,1,.154-.275.8.8,0,0,1,.3-.2,1.4,1.4,0,0,1,.824-.029.907.907,0,0,1,.3.151.725.725,0,0,1,.21.261.9.9,0,0,1,.079.38h.348a1.178,1.178,0,0,0-.078-.443,1.019,1.019,0,0,0-.242-.366,1.121,1.121,0,0,0-.406-.249,1.649,1.649,0,0,0-.569-.092,1.779,1.779,0,0,0-.568.085,1.21,1.21,0,0,0-.408.231.967.967,0,0,0-.248.33.935.935,0,0,0-.083.387,1.036,1.036,0,0,0,.081.426.81.81,0,0,0,.217.29,1.219,1.219,0,0,0,.312.189,2.686,2.686,0,0,0,.371.125q.194.05.389.1c.129.03.254.064.37.1a1.383,1.383,0,0,1,.313.142.607.607,0,0,1,.3.548.8.8,0,0,1-.057.3.685.685,0,0,1-.174.254.824.824,0,0,1-.3.175,1.4,1.4,0,0,1-.444.066,1.6,1.6,0,0,1-.413-.051.969.969,0,0,1-.34-.162.836.836,0,0,1-.24-.291,1.189,1.189,0,0,1-.115-.439Zm7.741-2.392H241.6v3.543h.364v-3.543h1.221v-.311h-2.805v.311Zm7.945,2.093a1.959,1.959,0,0,0,.163.84,1.149,1.149,0,0,0,.5.528,1.724,1.724,0,0,0,.834.184,1.745,1.745,0,0,0,.83-.18,1.145,1.145,0,0,0,.5-.525,1.953,1.953,0,0,0,.166-.847v-2.4h-.364v2.3a2.182,2.182,0,0,1-.107.754.841.841,0,0,1-.36.447,1.557,1.557,0,0,1-1.3.01.832.832,0,0,1-.37-.438,2.107,2.107,0,0,1-.118-.773v-2.3h-.364v2.4Zm9.791,1.45a3.631,3.631,0,0,0,.379-.018,2.05,2.05,0,0,0,.362-.069,1.452,1.452,0,0,0,.333-.143,1.248,1.248,0,0,0,.291-.241,1.47,1.47,0,0,0,.222-.319,2.027,2.027,0,0,0,.145-.366,2.531,2.531,0,0,0,.075-.388,3.077,3.077,0,0,0,.024-.389,3.058,3.058,0,0,0-.079-.691,2.259,2.259,0,0,0-.118-.355,1.607,1.607,0,0,0-.183-.324,1.21,1.21,0,0,0-.263-.262,1.356,1.356,0,0,0-.371-.192,1.838,1.838,0,0,0-.4-.08,3.973,3.973,0,0,0-.418-.017H256.8v3.854Zm-.953-3.543h.873c.108,0,.215,0,.32.01a2.125,2.125,0,0,1,.3.042,1.065,1.065,0,0,1,.26.092,1.094,1.094,0,0,1,.332.272,1.256,1.256,0,0,1,.2.359,1.843,1.843,0,0,1,.1.41,2.953,2.953,0,0,1,.028.426,3.028,3.028,0,0,1-.028.41,2.068,2.068,0,0,1-.1.411,1.317,1.317,0,0,1-.2.362.962.962,0,0,1-.317.262,1.464,1.464,0,0,1-.293.115,1.71,1.71,0,0,1-.3.05c-.1.009-.2.013-.314.012h-.873v-3.233Zm8.608,3.543v-3.854h-.364v3.854Zm5.461-1.922a2.743,2.743,0,0,0,.072.636,2.108,2.108,0,0,0,.216.555,1.7,1.7,0,0,0,.36.439,1.53,1.53,0,0,0,.5.289,2.03,2.03,0,0,0,1.286,0,1.523,1.523,0,0,0,.5-.289,1.684,1.684,0,0,0,.362-.439,2.094,2.094,0,0,0,.217-.555,2.662,2.662,0,0,0,.073-.636,2.72,2.72,0,0,0-.073-.645,2.066,2.066,0,0,0-.218-.56,1.68,1.68,0,0,0-.364-.439,1.583,1.583,0,0,0-.507-.287,1.965,1.965,0,0,0-.652-.1,1.871,1.871,0,0,0-.626.1,1.555,1.555,0,0,0-.5.289,1.672,1.672,0,0,0-.361.439,2.122,2.122,0,0,0-.22.559,2.658,2.658,0,0,0-.072.643Zm1.8,1.713a1.512,1.512,0,0,1-.535-.092,1.206,1.206,0,0,1-.4-.25,1.362,1.362,0,0,1-.282-.376,1.835,1.835,0,0,1-.161-.468,2.534,2.534,0,0,1-.053-.527,2.5,2.5,0,0,1,.053-.523,1.9,1.9,0,0,1,.162-.47,1.4,1.4,0,0,1,.28-.382,1.186,1.186,0,0,1,.4-.255,1.439,1.439,0,0,1,.528-.094,1.406,1.406,0,0,1,.768.209,1.339,1.339,0,0,1,.5.592,2.261,2.261,0,0,1,.175.923,2.5,2.5,0,0,1-.053.524,1.848,1.848,0,0,1-.162.468,1.34,1.34,0,0,1-.279.377,1.191,1.191,0,0,1-.4.252A1.485,1.485,0,0,1,273.033,310.261Z" transform="translate(-232.641 -297.922)" fill="#fff"/>
    </g>
    <g id="Grupo_24" data-name="Grupo 24" transform="translate(109.007 248.776)">
      <path id="Caminho_27" data-name="Caminho 27" d="M109.007,248.776v25.213H136.6V248.776Zm26.29,23.913H110.308V250.077H135.3Z" transform="translate(-109.007 -248.776)" fill="#fff"/>
      <g id="Grupo_23" data-name="Grupo 23" transform="translate(2.432 2.555)">
        <path id="Caminho_28" data-name="Caminho 28" d="M141.176,268.746H118.449l22.727-10.052Z" transform="translate(-118.449 -258.694)" fill="#fff"/>
        <path id="Caminho_29" data-name="Caminho 29" d="M141.176,307.765H118.449l22.727-10.051Z" transform="translate(-118.449 -287.662)" fill="#fff"/>
      </g>
    </g>
  </g>
</svg>
