<svg xmlns="http://www.w3.org/2000/svg" width="141.671" height="60" viewBox="0 0 141.671 60">
  <g id="Grupo_189" data-name="Grupo 189" transform="translate(-374 -20)">
    <g id="Grupo_131" data-name="Grupo 131" transform="translate(438.366 38.411)">
      <path id="Caminho_48769" data-name="Caminho 48769" d="M432.254,500.872V487.245h10.239l-1.022,3.824h-4.182V492.2h4.334l-.984,3.71h-3.35v4.958Zm10.655-5.2v-8.424h5.035v8.006c0,.895.34,1.414,1.022,1.552a1,1,0,0,0,.245.037,1.01,1.01,0,0,0,.247-.037,1.177,1.177,0,0,0,.785-.464,1.969,1.969,0,0,0,.236-1.088v-8.006h5.035v8.424a5.077,5.077,0,0,1-1.325,3.67,6.447,6.447,0,0,1-3.9,1.742c-.152.025-.323.044-.512.056s-.379.019-.568.019h-.662c-.19-.038-.327-.063-.416-.075a6.453,6.453,0,0,1-3.9-1.742,5.08,5.08,0,0,1-1.325-3.67Zm13.967,5.2V487.245h10.3l-1.04,3.824h-4.222V492.2h3.8v3.671h-3.8v1.174h5.281l-1.1,3.822Zm11.074,0V487.245h7.21a4.907,4.907,0,0,1,3.067.761,4.046,4.046,0,0,1,1.25,2.6,5.514,5.514,0,0,1,.074.927,4.115,4.115,0,0,1-.672,2.363,3.35,3.35,0,0,1-1.806,1.356l3.859,5.621h-5.885l-2.062-4.143v4.143Zm5.791-7.474a1.3,1.3,0,0,0,.784-.228.947.947,0,0,0,.388-.558,2.576,2.576,0,0,0,.077-.559q0-1.192-1.344-1.193h-.663V493.4Zm6.435,7.474H492.8l1.269-4.088h-5.034a2.789,2.789,0,0,0-.559.1c-.258.062-.452.113-.577.15l-.285.1.606-.567.512-.644,5.394-8.669H481.52l-1.193,4.088h5.054a1.763,1.763,0,0,0,.588-.113c.213-.077.434-.164.66-.265l.343-.17-.3.245a8.021,8.021,0,0,0-.6.551,1.718,1.718,0,0,0-.275.34l-5.62,8.951Zm13.266,0,4.846-13.627h5.244l4.843,13.627h-5.449l-.379-1.74h-3.274l-.4,1.74Zm8.518-5.186-.736-3.255-.173-.776-.111-.908a2.49,2.49,0,0,1-.049.55c-.031.125-.061.252-.085.378l-.189.757-.738,3.255Z" transform="translate(-431.91 -487.245)"/>
      <path id="Caminho_48770" data-name="Caminho 48770" d="M431.8,513.376a2.483,2.483,0,0,0,.193,1,1.943,1.943,0,0,0,.536.718,2.335,2.335,0,0,0,.811.43,3.448,3.448,0,0,0,1.02.143,3.576,3.576,0,0,0,1.393-.247,1.9,1.9,0,0,0,.879-.7,1.982,1.982,0,0,0,.308-1.11,1.926,1.926,0,0,0-.173-.85,1.511,1.511,0,0,0-.456-.554,2.448,2.448,0,0,0-.652-.344,6.953,6.953,0,0,0-.756-.217c-.263-.057-.521-.116-.772-.173a4.58,4.58,0,0,1-.695-.216,1.522,1.522,0,0,1-.529-.341,1,1,0,0,1-.272-.551,1.263,1.263,0,0,1,.029-.548,1.237,1.237,0,0,1,.283-.505,1.472,1.472,0,0,1,.557-.365,2.423,2.423,0,0,1,.857-.142,2.4,2.4,0,0,1,.653.089,1.665,1.665,0,0,1,.553.278,1.34,1.34,0,0,1,.386.477,1.664,1.664,0,0,1,.143.7h.637a2.176,2.176,0,0,0-.142-.812,1.885,1.885,0,0,0-.444-.671,2.078,2.078,0,0,0-.744-.456,3.054,3.054,0,0,0-1.043-.168,3.287,3.287,0,0,0-1.04.156,2.235,2.235,0,0,0-.748.424,1.759,1.759,0,0,0-.453.6,1.706,1.706,0,0,0-.152.709,1.882,1.882,0,0,0,.148.78,1.484,1.484,0,0,0,.4.533,2.265,2.265,0,0,0,.572.346,4.959,4.959,0,0,0,.68.229c.237.062.475.121.713.175s.466.116.679.185a2.49,2.49,0,0,1,.574.26,1.111,1.111,0,0,1,.544,1,1.47,1.47,0,0,1-.1.558,1.236,1.236,0,0,1-.32.464,1.513,1.513,0,0,1-.558.321,2.616,2.616,0,0,1-.815.12,2.9,2.9,0,0,1-.756-.093,1.774,1.774,0,0,1-.624-.3,1.54,1.54,0,0,1-.439-.532,2.19,2.19,0,0,1-.211-.8Zm14.185-4.384h2.238v6.494h.666v-6.494h2.237v-.57h-5.141v.57Zm14.559,3.836a3.6,3.6,0,0,0,.3,1.539,2.108,2.108,0,0,0,.909.967,3.646,3.646,0,0,0,3.05.007,2.1,2.1,0,0,0,.913-.961,3.589,3.589,0,0,0,.3-1.552v-4.406h-.668v4.209a4.045,4.045,0,0,1-.2,1.381,1.548,1.548,0,0,1-.659.82,2.854,2.854,0,0,1-2.391.018,1.527,1.527,0,0,1-.677-.8,3.847,3.847,0,0,1-.216-1.417v-4.209h-.667v4.406Zm17.943,2.657a6.858,6.858,0,0,0,.693-.033,3.787,3.787,0,0,0,.663-.127,2.722,2.722,0,0,0,.611-.262,2.226,2.226,0,0,0,.533-.443,2.674,2.674,0,0,0,.408-.584,3.608,3.608,0,0,0,.264-.67,4.515,4.515,0,0,0,.139-.71,5.5,5.5,0,0,0,.045-.712c0-.19-.012-.393-.034-.609a5.908,5.908,0,0,0-.112-.658,4.1,4.1,0,0,0-.217-.652,2.9,2.9,0,0,0-.335-.593,2.188,2.188,0,0,0-.483-.48,2.45,2.45,0,0,0-.68-.353,3.376,3.376,0,0,0-.73-.147,7.53,7.53,0,0,0-.766-.032H476.07v7.064Zm-1.748-6.494h1.6c.2,0,.394,0,.586.018a3.744,3.744,0,0,1,.557.077,1.877,1.877,0,0,1,1.084.668,2.306,2.306,0,0,1,.371.659,3.425,3.425,0,0,1,.188.751,5.338,5.338,0,0,1,.05.78,5.574,5.574,0,0,1-.05.752,3.8,3.8,0,0,1-.185.751,2.392,2.392,0,0,1-.359.663,1.758,1.758,0,0,1-.581.481,2.612,2.612,0,0,1-.538.211,2.992,2.992,0,0,1-.547.092,5.655,5.655,0,0,1-.574.022h-1.6v-5.924Zm15.775,6.494v-7.064h-.668v7.064Zm10.008-3.522a4.984,4.984,0,0,0,.132,1.165,3.839,3.839,0,0,0,.4,1.017,3.111,3.111,0,0,0,.659.805,2.8,2.8,0,0,0,.919.529,3.729,3.729,0,0,0,2.358,0,2.8,2.8,0,0,0,.92-.529,3.077,3.077,0,0,0,.662-.805,3.844,3.844,0,0,0,.4-1.017,4.866,4.866,0,0,0,.135-1.165,4.971,4.971,0,0,0-.135-1.181,3.8,3.8,0,0,0-.4-1.025,3.049,3.049,0,0,0-.668-.8,2.892,2.892,0,0,0-.929-.527,3.62,3.62,0,0,0-1.193-.189,3.452,3.452,0,0,0-1.149.189,2.871,2.871,0,0,0-.912.529,3.109,3.109,0,0,0-.661.806,3.917,3.917,0,0,0-.4,1.024,4.811,4.811,0,0,0-.132,1.178Zm3.3,3.14a2.755,2.755,0,0,1-.98-.169,2.23,2.23,0,0,1-.741-.457,2.5,2.5,0,0,1-.515-.69,3.352,3.352,0,0,1-.295-.859,4.564,4.564,0,0,1-.1-.966,4.5,4.5,0,0,1,.1-.957,3.432,3.432,0,0,1,.3-.862,2.552,2.552,0,0,1,.513-.7,2.183,2.183,0,0,1,.734-.468,2.648,2.648,0,0,1,.967-.173,2.583,2.583,0,0,1,1.408.384,2.455,2.455,0,0,1,.91,1.084,4.142,4.142,0,0,1,.322,1.691,4.688,4.688,0,0,1-.1.96,3.4,3.4,0,0,1-.3.856,2.458,2.458,0,0,1-.511.691,2.177,2.177,0,0,1-.736.463A2.722,2.722,0,0,1,505.814,515.1Z" transform="translate(-431.796 -492.493)"/>
    </g>
    <path id="Caminho_48771" data-name="Caminho 48771" d="M401.576,495.022l-1.615-19.314,0-.015,0-.039c0-.016-.006-.031-.009-.047V475.6l0-.023v-.005l-.006-.019-.014-.045c0-.013-.008-.025-.014-.037l-.007-.019c-.005-.013-.011-.025-.017-.037s-.015-.031-.024-.047l-.011-.02,0-.007-.011-.016c-.01-.016-.022-.032-.034-.048s-.011-.016-.017-.024l-.007-.008,0,0-.039-.044-.029-.03-.008-.008c-.012-.011-.026-.021-.039-.032l-.031-.026-.017-.011-.03-.019-.008,0-.031-.02-.03-.015-.035-.017-.026-.013h0l-29.5-12.245a.835.835,0,0,0-.928.2L346.2,487.228l-.012.014c-.014.016-.028.031-.04.048l-.018.024-.009.012h0c-.01.016-.02.032-.029.048l-.01.015c-.008.013-.013.026-.02.04l-.009.019-.012.026,0,.008c-.01.025-.019.049-.027.075l0,.007-.006.021c-.005.021-.01.042-.014.063l0,.029,0,.016c0,.015,0,.03,0,.046s0,.023,0,.035v.017a.092.092,0,0,0,0,.014v.03c0,.01,0,.02,0,.031s.005.043.008.064l0,.018a.929.929,0,0,0,.026.1l0,.012.006.017c.007.02.014.038.023.057l.011.024c.005.011.01.022.016.033l10.352,19.589.008.013c.016.028.032.055.05.08l.008.012a.878.878,0,0,0,.069.082l.016.016a.861.861,0,0,0,.075.066l.007.006a.743.743,0,0,0,.092.061l.006,0,25.993,14.471.017.008.029.016h0l.013.005.016.007.037.015.037.014.028.008.03.009c.018,0,.037.008.055.01l.016,0h.01l.016,0a.9.9,0,0,0,.1.006l.022,0a.837.837,0,0,0,.087-.006l.019,0,.031-.007c.019,0,.039-.007.058-.012l.035-.011.031-.01.037-.014.041-.019.035-.017.013-.007.008-.006.041-.025.044-.032.014-.01.007-.006.023-.02c.015-.013.029-.027.043-.041l.023-.022.013-.016a.547.547,0,0,0,.041-.052c.008-.01.015-.018.022-.028l.005-.008,0,0,17.588-26.771A.842.842,0,0,0,401.576,495.022Zm-43.851,11.648-3.122-5.908,19.328,9.854Zm-.33-6.358,19.54,2.658,2.418,8.536Zm1.594-24.245L384.852,487.4l-36.131-.412Zm26.839,14.714-8.475,10.4-26.7-12.5,36.548.416Zm-7.318,11.625L395.1,482.041,380.89,510.8ZM388.7,487.26l-25.758-11.287,34.458.609Zm-5.342,32.246-1.763-6.226,13.773-18.941Zm2.417-14.815,12.775-25.851.621,7.43Zm-15.929-40.166,24.911,10.34-34.069-.6Zm2.437,36.126-19.109-2.6-4.459-8.438Zm-9.324,9.011,17.051,4.152,1.8,6.342Zm26.233,1.5,10.262-21.506.437,5.22Z" transform="translate(28.024 -442.698)"/>
  </g>
</svg>
